<svg width="256" height="256" viewBox="0 0 256 256" xmlns="http://www.w3.org/2000/svg">
  <rect width="256" height="256" rx="64" fill="#020617"></rect>
  <path fill="#F9FAFB" d="M172 188c-4.6 7-9.8 13.8-17.6 13.9-7.6.1-10-4.5-18.8-4.5-8.8 0-11.5 4.4-18.7 4.6-7.5.1-13.3-7.6-17.9-14.6-9.7-14.8-17.1-41.7-7.2-60 5.1-9.4 14.3-15.4 24.2-15.6 7.6-.1 14.8 5.1 18.8 5.1 3.9 0 11-6.3 18.6-5.3 3.2.1 12.4 1.3 18.2 9.9-0.47.3-10.9 6.4-10.8 19.1.1 15.2 13.2 20.2 13.3 20.2-.1.3-2.1 7.4-7.1 17.2Z"></path>
  <path fill="#F9FAFB" d="M144.3 72.4c3.5-4.4 6.1-10.6 5.5-16.8-5.3.2-11.8 3.6-15.6 8-3.4 3.9-6.3 10.3-5.5 16.4 5.8.4 11.8-3.2 15.6-7.6Z"></path>
</svg>
